<?xml version="1.0" encoding="iso-8859-1"?>
<!-- Generator: Adobe Illustrator 19.0.0, SVG Export Plug-In . SVG Version: 6.00 Build 0)  -->
<svg version="1.1" id="Layer_1" xmlns="http://www.w3.org/2000/svg" xmlns:xlink="http://www.w3.org/1999/xlink" x="0px" y="0px"
	 viewBox="0 0 511.988 511.988" style="enable-background:new 0 0 511.988 511.988;" xml:space="preserve">
<path style="fill:#ED5564;" d="M511.988,255.994c0,141.387-114.623,255.994-255.994,255.994C114.615,511.988,0,397.381,0,255.994
	S114.615,0,255.994,0C397.365,0,511.988,114.607,511.988,255.994z"/>
<g style="opacity:0.2;">
	<path style="fill:#FFFFFF;" d="M255.994,0c-7.188,0-14.297,0.297-21.335,0.875c131.394,10.844,234.673,120.919,234.673,255.119
		c0,134.199-103.279,244.275-234.673,255.119c7.039,0.578,14.148,0.875,21.335,0.875c141.371,0,255.994-114.607,255.994-255.994
		S397.365,0,255.994,0z"/>
</g>
<path style="fill:#EAC6BB;" d="M134.161,259.619c-1.867-26.453,7.687-31.609,22.164-39.406
	c13.695-7.374,32.444-17.483,33.194-49.295c0.602-25.688-17.117-54.842-52.647-86.686c-14.211-12.734-28.351-23.266-38.226-30.171
	c-5.812,4.531-11.422,9.312-16.82,14.327c9.125,6.188,25.046,17.609,40.812,31.733c30.242,27.094,45.991,51.405,45.554,70.296
	c-0.461,19.422-9.023,24.031-21.992,31.015c-15.257,8.234-36.155,19.499-33.319,59.687c1.25,17.687,10.492,33.062,27.468,45.67
	c12.508,9.297,29.32,17.094,49.991,23.203c34.296,10.141,67.475,12.234,68.874,12.312l1.281-21.297
	c-0.32-0.016-32.429-2.062-64.42-11.562C168.863,301.367,136.036,286.165,134.161,259.619z"/>
<path style="fill:#DBADA2;" d="M365.787,260.76l-45.482-74.451c-0.438-0.812-0.938-1.594-1.469-2.312l-17.656,11.938l0.25,0.422
	c0.625,2.983-1.953,14.796-12.406,29.014c-11.109,15.094-24.506,24.109-35.857,24.109c-0.508,0-1.023-0.016-1.531-0.062
	l-45.765-17.75l-20.679,35.797l33.882,32.467c-12.828,12.984-17.687,28.234-20.539,37.188c-0.266,0.812-0.555,1.734-0.82,2.531
	c-1.242,0.406-1.773,0.438-1.914,0.438c-0.352-0.062-1.562-0.625-2.445-1.031c-3.602-1.656-9.047-4.172-18.812-5.234
	c-0.977-0.109-1.977-0.156-2.969-0.156c-10.828,0-22.304,6.203-34.116,18.453c-7.938,8.233-13.32,16.421-13.547,16.765l-4.562,6.969
	l35.359,38.202l20.656-8.969c18.757,19.891,42.077,30.343,67.889,30.343l0,0c22.797,0,46.6-8.077,68.85-23.358
	c20.531-14.109,38.328-33.594,50.076-54.874C381.256,322.68,382.584,287.524,365.787,260.76z"/>
<path style="fill:#EAC6BB;" d="M326.961,77.873c-55.451,0-100.568,45.124-100.568,100.592c0,55.451,45.117,100.575,100.568,100.575
	c55.467,0,100.592-45.124,100.592-100.575C427.553,122.997,382.428,77.873,326.961,77.873z"/>
<g>
</g>
<g>
</g>
<g>
</g>
<g>
</g>
<g>
</g>
<g>
</g>
<g>
</g>
<g>
</g>
<g>
</g>
<g>
</g>
<g>
</g>
<g>
</g>
<g>
</g>
<g>
</g>
<g>
</g>
</svg>
