<?xml version='1.0' encoding='utf-8'?>
<!DOCTYPE svg PUBLIC '-//W3C//DTD SVG 1.1//EN' 'http://www.w3.org/Graphics/SVG/1.1/DTD/svg11.dtd'>
<svg version="1.1" xmlns="http://www.w3.org/2000/svg" viewBox="0 0 512 512" xmlns:xlink="http://www.w3.org/1999/xlink" enable-background="new 0 0 512 512">
  <g>
    <g>
      <path d="m354.3,137.5h-258.3c-11.5,0-20.7,9.3-20.7,20.7v195.6c0,11.5 9.3,20.7 20.7,20.7h258.4c11.5,0 20.7-9.3 20.7-20.7v-195.6c5.68434e-14-11.4-9.3-20.7-20.8-20.7zm-63.6,143.5c-15.1,20.6-49.9,54.3-51.4,55.7-4,3.8-9.1,5.7-14.2,5.7-5.1,0-10.2-1.9-14.2-5.7-1.5-1.4-36.2-35.1-51.4-55.7-26.2-35.8-27.6-79.9-3.2-100.6 18.2-15.4 44.8-13.9 68.7,2.5 23.9-16.4 50.5-17.8 68.7-2.5 24.6,20.7 23.2,64.8-3,100.6z"/>
      <path d="M480.6,11H31.4C20.1,11,11,20.1,11,31.4s9.1,20.4,20.4,20.4h106.8v44.8h40.8V51.8h122.8v44.8h40.8V51.8h117.5v428.8    c0,11.3,9.1,20.4,20.4,20.4c11.3,0,20.4-9.1,20.4-20.4V31.4C501,20.1,491.9,11,480.6,11z"/>
      <path d="m267.5,211.6c-3.6-3-15.9,0.1-27.9,12.2-7.7,7.7-21.3,7.7-28.9,0-9.7-9.7-18.9-13.2-24.1-13.2-1.7,0-3,0.4-3.8,1-5.1,4.3-5.3,24.7 9.8,45.2 7.2,9.8 21.2,24.7 32.6,36.3 11.4-11.6 25.4-26.6 32.6-36.3 15-20.4 14.8-40.9 9.7-45.2z"/>
    </g>
  </g>
</svg>
